<svg width="30" height="30" viewBox="0 0 30 30" fill="none" xmlns="http://www.w3.org/2000/svg">
<circle cx="15" cy="15" r="14" fill="url(#paint0_linear)" stroke="white"/>
<path d="M8.46143 11.3833V19.6021C8.46143 21.2158 9.76957 22.5239 11.3833 22.5239H19.6021C21.2158 22.5239 22.5239 21.2158 22.5239 19.6021V11.3833C22.5239 9.76957 21.2158 8.46143 19.6021 8.46143H11.3833C9.76957 8.46143 8.46143 9.76957 8.46143 11.3833ZM16.9823 19.4771C13.5138 20.6738 10.3115 17.4716 11.5082 14.0031C11.9115 12.8341 12.834 11.9115 14.003 11.5082C17.4716 10.3115 20.6738 13.5138 19.4771 16.9824C19.0739 18.1514 18.1514 19.0739 16.9823 19.4771ZM20.3722 11.2405C20.317 11.5294 20.0779 11.6976 19.8306 11.6976C19.68 11.6976 19.5265 11.6354 19.409 11.5006C19.3987 11.4887 19.389 11.4759 19.3804 11.4626C19.2591 11.2772 19.2553 11.0569 19.3584 10.8783C19.4314 10.7519 19.5491 10.6616 19.6901 10.6238C19.831 10.5859 19.9783 10.6054 20.1045 10.6784C20.2832 10.7814 20.39 10.9741 20.3778 11.195C20.377 11.2102 20.3752 11.2255 20.3722 11.2405Z" fill="white"/>
<path d="M15.4926 12.0764C13.6088 12.0764 12.0764 13.6089 12.0764 15.4927C12.0764 17.3765 13.6088 18.9089 15.4926 18.9089C17.3765 18.9089 18.9089 17.3765 18.9089 15.4927C18.9089 13.6089 17.3765 12.0764 15.4926 12.0764Z" fill="white"/>
<defs>
<linearGradient id="paint0_linear" x1="1" y1="1" x2="1" y2="29" gradientUnits="userSpaceOnUse">
<stop stop-color="#F18B6D"/>
<stop offset="1" stop-color="#AD3C3B"/>
</linearGradient>
</defs>
</svg>
