<svg width="30" height="30" viewBox="0 0 30 30" fill="none" xmlns="http://www.w3.org/2000/svg">
<circle cx="15" cy="15" r="14" fill="url(#paint0_linear)" stroke="white"/>
<g clip-path="url(#clip0)">
<path d="M24 10.6591C23.4794 10.8875 22.9246 11.0389 22.3462 11.1124C22.9412 10.7571 23.3954 10.1989 23.6089 9.526C23.0541 9.85675 22.4416 10.0904 21.7889 10.2208C21.2621 9.65988 20.5114 9.3125 19.6924 9.3125C18.1034 9.3125 16.8241 10.6023 16.8241 12.1834C16.8241 12.4109 16.8434 12.6296 16.8906 12.8379C14.5045 12.7215 12.3931 11.5779 10.9747 9.83575C10.7271 10.2654 10.5819 10.7571 10.5819 11.2865C10.5819 12.2805 11.0938 13.1616 11.8568 13.6718C11.3956 13.663 10.9433 13.5291 10.56 13.3183C10.56 13.327 10.56 13.3384 10.56 13.3498C10.56 14.7445 11.5549 15.903 12.8595 16.1699C12.6259 16.2337 12.3712 16.2644 12.107 16.2644C11.9232 16.2644 11.7377 16.2539 11.5636 16.2154C11.9355 17.352 12.9908 18.1876 14.2455 18.2148C13.269 18.9786 12.0291 19.4389 10.6869 19.4389C10.4515 19.4389 10.2257 19.4284 10 19.3995C11.2714 20.2194 12.7781 20.6875 14.403 20.6875C19.6845 20.6875 22.572 16.3125 22.572 12.5202C22.572 12.3934 22.5676 12.2709 22.5615 12.1493C23.1311 11.745 23.6097 11.2401 24 10.6591Z" fill="white"/>
</g>
<defs>
<linearGradient id="paint0_linear" x1="1" y1="1" x2="1" y2="29" gradientUnits="userSpaceOnUse">
<stop stop-color="#F18B6D"/>
<stop offset="1" stop-color="#AD3C3B"/>
</linearGradient>
<clipPath id="clip0">
<rect width="14" height="14" fill="white" transform="translate(10 8)"/>
</clipPath>
</defs>
</svg>
