<svg width="53" height="54" viewBox="0 0 53 54" fill="none" xmlns="http://www.w3.org/2000/svg">
<circle cx="26.2" cy="27" r="25.2" fill="url(#paint0_linear)" stroke="white" stroke-width="1.8"/>
<g clip-path="url(#clip0)">
<path d="M42.4031 19.1864C41.466 19.5975 40.4675 19.87 39.4264 20.0023C40.4974 19.3628 41.3148 18.358 41.6991 17.1468C40.7006 17.7421 39.598 18.1627 38.4231 18.3973C37.475 17.3878 36.1236 16.7625 34.6494 16.7625C31.7892 16.7625 29.4866 19.084 29.4866 21.9301C29.4866 22.3396 29.5212 22.7333 29.6063 23.1082C25.3112 22.8987 21.5108 20.8402 18.9577 17.7043C18.512 18.4777 18.2505 19.3628 18.2505 20.3157C18.2505 22.1049 19.1719 23.6909 20.5453 24.6091C19.7153 24.5934 18.901 24.3524 18.2111 23.9728C18.2111 23.9886 18.2111 24.0091 18.2111 24.0295C18.2111 26.5401 20.0019 28.6254 22.3502 29.1058C21.9297 29.2207 21.4714 29.2759 20.9957 29.2759C20.665 29.2759 20.3311 29.257 20.0176 29.1877C20.687 31.2336 22.5865 32.7377 24.845 32.7865C23.0873 34.1615 20.8556 34.99 18.4395 34.99C18.0158 34.99 17.6095 34.9711 17.2031 34.9191C19.4916 36.3949 22.2038 37.2375 25.1285 37.2375C34.6352 37.2375 39.8327 29.3625 39.8327 22.5364C39.8327 22.3081 39.8249 22.0876 39.8138 21.8686C40.8392 21.141 41.7007 20.2322 42.4031 19.1864Z" fill="white"/>
</g>
<defs>
<linearGradient id="paint0_linear" x1="1" y1="1.80002" x2="1" y2="52.2" gradientUnits="userSpaceOnUse">
<stop stop-color="#F18B6D"/>
<stop offset="1" stop-color="#AD3C3B"/>
</linearGradient>
<clipPath id="clip0">
<rect width="25.2" height="25.2" fill="white" transform="translate(17.2031 14.3999)"/>
</clipPath>
</defs>
</svg>
