<svg width="36" height="36" viewBox="0 0 36 36" fill="none" xmlns="http://www.w3.org/2000/svg">
<g clip-path="url(#clip0)">
<path d="M34.9781 8.58901C34.9104 8.58668 33.52 8.53974 31.479 8.58485V4.40023C31.479 3.78336 30.9523 3.29412 30.3321 3.34508C26.2626 3.68482 21.085 5.48306 18 8.76294C14.915 5.48306 9.73744 3.68482 5.66788 3.34508C5.04882 3.29468 4.52096 3.78174 4.52096 4.40023V8.698C3.36134 8.65423 2.26447 8.62339 1.09024 8.58887C0.498 8.57016 0 9.0472 0 9.6472V28.9298C0 29.487 0.431788 29.9489 0.987741 29.9862C5.1996 30.2697 12.2548 30.3016 17.5847 32.5748C18.0596 32.7777 18.4861 32.5447 18.4155 32.5748C23.7452 30.3017 30.7991 30.2698 35.0124 29.9862C35.5683 29.9489 36.0001 29.487 36.0001 28.9298V9.6472C36 9.07678 35.5482 8.60892 34.9781 8.58901ZM29.3614 5.59113V23.7385C26.308 24.4215 22.4384 25.879 19.0588 28.9695C19.0588 28.0373 19.0588 11.2733 19.0588 10.7692C21.3755 7.87861 25.763 6.13635 29.3614 5.59113ZM6.63861 5.59113C10.237 6.13635 14.6245 7.87861 16.9412 10.7692V28.9695C13.5616 25.879 9.69198 24.4215 6.63861 23.7385V5.59113ZM2.11765 27.9334V10.7376C2.87584 10.7601 3.68675 10.7854 4.52096 10.8173V24.6015C4.52096 25.111 4.88379 25.5482 5.38447 25.6421C7.80219 26.096 10.9462 27.0809 13.8764 29.2018C9.69586 28.2642 5.31995 28.1135 2.11765 27.9334ZM33.8824 27.9334C30.6853 28.1132 26.3058 28.2638 22.1235 29.2018C25.0537 27.0809 28.1978 26.096 30.6155 25.6421C31.1161 25.5482 31.479 25.111 31.479 24.6015V10.7032C32.4535 10.6814 33.2836 10.6811 33.8823 10.6865V27.9334H33.8824Z" fill="#636363"/>
<path d="M14.195 13.2082C13.3749 12.6369 11.9611 11.9356 10.4522 11.6806C9.87588 11.5828 9.32924 11.9716 9.23176 12.5482C9.13435 13.1248 9.52279 13.6712 10.0994 13.7686C11.2643 13.9655 12.3816 14.5257 12.9844 14.9457C13.4641 15.2799 14.1241 15.1622 14.4585 14.6822C14.7927 14.2024 14.6747 13.5424 14.195 13.2082Z" fill="#636363"/>
<path d="M14.0889 19.1709C13.3344 18.7101 11.8586 17.9016 10.4522 17.664C9.87588 17.5663 9.32924 17.9549 9.23176 18.5316C9.13435 19.1082 9.5228 19.6546 10.0994 19.752C11.195 19.9371 12.4825 20.6711 12.9851 20.9782C13.4848 21.2832 14.1362 21.1249 14.4407 20.6264C14.7455 20.1274 14.588 19.4758 14.0889 19.1709Z" fill="#636363"/>
<path d="M23.0138 14.9458C23.6166 14.5258 24.7338 13.9655 25.8988 13.7686C26.4753 13.6712 26.8638 13.1248 26.7664 12.5483C26.669 11.9716 26.1224 11.5826 25.546 11.6807C24.0371 11.9355 22.6233 12.6369 21.8032 13.2082C21.3234 13.5425 21.2055 14.2025 21.5397 14.6823C21.8742 15.1623 22.5344 15.2798 23.0138 14.9458Z" fill="#636363"/>
<path d="M25.5462 17.664C24.1398 17.9016 22.664 18.7102 21.9094 19.171C21.4104 19.4758 21.2529 20.1274 21.5577 20.6265C21.8625 21.1255 22.5141 21.283 23.0132 20.9782C23.5159 20.6712 24.8033 19.9372 25.899 19.7521C26.4755 19.6546 26.864 19.1083 26.7666 18.5317C26.6691 17.955 26.1226 17.566 25.5462 17.664Z" fill="#636363"/>
</g>
<defs>
<clipPath id="clip0">
<rect width="36" height="36" fill="white"/>
</clipPath>
</defs>
</svg>
