<svg width="38" height="38" viewBox="0 0 38 38" fill="none" xmlns="http://www.w3.org/2000/svg">
<g clip-path="url(#clip0)">
<path d="M31.5144 3.27135C31.2321 3.10495 30.8908 3.07148 30.5815 3.17969C27.4064 4.29089 24.2411 5.39312 21.705 6.27521C20.9056 5.39742 19.8295 4.77688 18.6164 4.54969C18.3012 2.71419 17.141 1.12887 15.4324 0.274541L15.119 0.117865C14.5693 -0.157041 13.9004 0.0658376 13.6254 0.615725C13.3504 1.16561 13.5733 1.8344 14.1232 2.1093L14.4367 2.26598C15.3959 2.74566 16.0776 3.59494 16.3478 4.59467C13.9959 5.13298 12.208 7.16427 12.0383 9.63472C8.41114 10.8953 4.56097 12.235 0.745527 13.5704C0.298953 13.7266 7.42188e-05 14.1481 7.42188e-05 14.6211H0V26.4961H0.000964844C0.00103906 26.9566 0.287746 27.3875 0.74716 27.5474L30.5831 37.9381C30.7021 37.9796 30.8259 38 30.9492 38C31.0823 38 31.2148 37.9762 31.3402 37.9292C31.3703 37.9217 31.4081 37.9133 31.4526 37.903C32.068 37.7608 33.7027 37.3828 35.1821 36.1666C37.0519 34.6296 38 32.3748 38 29.4649V14.6211C38 14.3137 37.9263 7.04975 31.5144 3.27135ZM17.5898 6.6797C19.4314 6.6797 20.9297 8.17795 20.9297 10.0195C20.9297 11.8611 19.4314 13.3594 17.5898 13.3594C15.7483 13.3594 14.25 11.8611 14.25 10.0195C14.25 8.17795 15.7483 6.6797 17.5898 6.6797ZM12.346 11.8849C13.1147 14.0394 15.1746 15.586 17.5898 15.586C20.6592 15.586 23.1562 13.0889 23.1562 10.0195C23.1562 9.39388 23.0509 8.79271 22.8597 8.23095C25.1838 7.42248 27.9819 6.44799 30.8143 5.45709C35.7155 8.66921 35.7734 14.5603 35.7734 14.6211C35.7734 19.7848 32.0531 22.8791 30.7941 23.7779L24.6373 21.6231C24.2968 21.5039 23.9196 21.557 23.6253 21.7659C23.331 21.9746 23.1562 22.3131 23.1562 22.6739V27.2383C23.1562 27.8522 22.6568 28.3516 22.043 28.3516C21.4291 28.3516 20.9297 27.8522 20.9297 27.2383V21.1153C20.9297 20.6411 20.6295 20.2191 20.1816 20.0636L4.49743 14.6176C7.15884 13.6887 9.804 12.7685 12.346 11.8849ZM18.7031 25.4878L2.22656 19.7667V16.1861L18.7031 21.9072V25.4878ZM2.22656 22.1237L18.763 27.8655C19.0574 29.4082 20.4157 30.5782 22.043 30.5782C22.872 30.5782 23.6309 30.2739 24.2154 29.772L29.8359 31.7392V35.3202L2.22656 25.705V22.1237ZM29.8359 29.3801L25.3338 27.8045C25.3654 27.6203 25.3828 27.4314 25.3828 27.2384V24.2431L29.8359 25.8017V29.3801ZM35.7734 29.4649C35.7734 32.5102 34.5563 34.4619 32.0625 35.4005V25.6099C32.8801 25.0325 34.4519 23.7704 35.7734 21.8151V29.4649Z" fill="#636363"/>
<path d="M30.5781 10.9102C31.193 10.9102 31.6914 10.4117 31.6914 9.79688C31.6914 9.18203 31.193 8.68359 30.5781 8.68359C29.9633 8.68359 29.4648 9.18203 29.4648 9.79688C29.4648 10.4117 29.9633 10.9102 30.5781 10.9102Z" fill="#636363"/>
<path d="M32.0625 16.1055C32.6773 16.1055 33.1758 15.607 33.1758 14.9922C33.1758 14.3773 32.6773 13.8789 32.0625 13.8789C31.4477 13.8789 30.9492 14.3773 30.9492 14.9922C30.9492 15.607 31.4477 16.1055 32.0625 16.1055Z" fill="#636363"/>
<path d="M28.3516 20.5586C28.9664 20.5586 29.4648 20.0602 29.4648 19.4453C29.4648 18.8305 28.9664 18.332 28.3516 18.332C27.7367 18.332 27.2383 18.8305 27.2383 19.4453C27.2383 20.0602 27.7367 20.5586 28.3516 20.5586Z" fill="#636363"/>
<path d="M26.125 15.3633C26.7398 15.3633 27.2383 14.8648 27.2383 14.25C27.2383 13.6352 26.7398 13.1367 26.125 13.1367C25.5102 13.1367 25.0117 13.6352 25.0117 14.25C25.0117 14.8648 25.5102 15.3633 26.125 15.3633Z" fill="#636363"/>
</g>
<defs>
<clipPath id="clip0">
<rect width="38" height="38" fill="white"/>
</clipPath>
</defs>
</svg>
