<svg width="38" height="38" viewBox="0 0 38 38" fill="none" xmlns="http://www.w3.org/2000/svg">
<path d="M34.6602 8.98047H26.0508V6.38281C26.0508 4.54122 24.5525 3.04297 22.7109 3.04297H15.2891C13.4475 3.04297 11.9492 4.54122 11.9492 6.38281V8.98047H3.33984C1.49825 8.98047 0 10.4787 0 12.3203V31.6172C0 33.4588 1.49825 34.957 3.33984 34.957H34.6602C36.5017 34.957 38 33.4588 38 31.6172V12.3203C38 10.4787 36.5017 8.98047 34.6602 8.98047ZM35.7734 12.3203V14.0202C34.4163 13.6349 33.3457 12.5641 32.9603 11.207H34.6602C35.274 11.207 35.7734 11.7064 35.7734 12.3203ZM30.6785 32.7305H7.32153C6.85863 30.143 4.81405 28.0984 2.22656 27.6355V16.302C4.81405 15.8391 6.85863 13.7945 7.32153 11.207H30.6785C31.1414 13.7945 33.186 15.8391 35.7735 16.302V27.6356C33.186 28.0984 31.1414 30.143 30.6785 32.7305ZM14.1758 6.38281C14.1758 5.76895 14.6752 5.26953 15.2891 5.26953H22.7109C23.3248 5.26953 23.8242 5.76895 23.8242 6.38281V8.98047H14.1758V6.38281ZM3.33984 11.207H5.03975C4.65433 12.5641 3.58365 13.6348 2.22656 14.0202V12.3203C2.22656 11.7064 2.72598 11.207 3.33984 11.207ZM2.22656 31.6172V29.9173C3.58365 30.3026 4.65433 31.3734 5.03975 32.7305H3.33984C2.72598 32.7305 2.22656 32.2311 2.22656 31.6172ZM34.6602 32.7305H32.9603C33.3456 31.3734 34.4163 30.3027 35.7734 29.9173V31.6172C35.7734 32.2311 35.274 32.7305 34.6602 32.7305Z" fill="#636363"/>
<path d="M30.3599 15.4842C28.2989 14.8592 26.0492 14.9206 24.0254 15.6573L21.6689 16.5149L16.3793 14.0483C16.1117 13.9235 15.8054 13.9102 15.528 14.0112L12.0409 15.2805C11.6491 15.4231 11.3697 15.7728 11.3173 16.1865C11.2648 16.6001 11.4479 17.0085 11.7917 17.2445L14.5202 19.117L11.3341 20.2766L9.6578 19.0448C9.35788 18.8242 8.96742 18.7685 8.61785 18.8956L6.52554 19.6572C6.24804 19.7582 6.02212 19.9653 5.89728 20.2329C5.77245 20.5006 5.75916 20.8067 5.8601 21.0842L6.87556 23.8738C7.31627 25.0847 8.20215 26.0515 9.36998 26.5961C10.5378 27.1408 11.8478 27.198 13.0587 26.7572L16.8046 25.3938L15.9182 28.5821C15.8065 28.9838 15.9288 29.4144 16.2349 29.6975C16.4441 29.891 16.7153 29.9935 16.9911 29.9935C17.1189 29.9935 17.2476 29.9715 17.3717 29.9264L20.8588 28.6571C21.1362 28.5561 21.3622 28.349 21.487 28.0814L23.9536 22.7918L30.4946 20.411C31.1466 20.1738 31.6671 19.6967 31.9604 19.0678C32.2536 18.439 32.2844 17.7335 32.0471 17.0815C31.7689 16.3174 31.1382 15.7203 30.3599 15.4842ZM29.7331 18.3187L22.7587 20.8572C22.4813 20.9582 22.2553 21.1652 22.1305 21.4329L19.6639 26.7225L18.6429 27.0942L19.5293 23.9059C19.641 23.5042 19.5188 23.0736 19.2126 22.7905C19.0034 22.597 18.7323 22.4945 18.4565 22.4945C18.3287 22.4945 18.1999 22.5165 18.0759 22.5616L12.2972 24.6649C11.6453 24.9023 10.9398 24.8715 10.311 24.5782C9.68207 24.285 9.20514 23.7644 8.96779 23.1123L8.33307 21.3688L8.81942 21.1918L10.4957 22.4236C10.7957 22.6442 11.1859 22.6999 11.5358 22.5727L17.3144 20.4695C17.7062 20.3268 17.9855 19.9771 18.038 19.5634C18.0905 19.1498 17.9074 18.7414 17.5635 18.5054L14.8351 16.6329L15.8561 16.2613L21.1457 18.7278C21.4132 18.8526 21.7195 18.8658 21.997 18.765L24.7867 17.7496C26.361 17.1767 28.1109 17.1289 29.7136 17.615C29.8248 17.6487 29.9149 17.734 29.9546 17.8432C30.0248 18.0355 29.9253 18.2488 29.7331 18.3187Z" fill="#636363"/>
</svg>
