<svg width="33" height="33" viewBox="0 0 33 33" fill="none" xmlns="http://www.w3.org/2000/svg">
<g clip-path="url(#clip0)">
<path d="M32.6163 8.05907C32.3747 7.87641 32.0614 7.81744 31.7698 7.89994L18.1058 11.7671C17.6897 11.8849 17.4023 12.2648 17.4023 12.6974V25.7859C16.833 25.4557 16.1729 25.2657 15.4687 25.2657C13.3364 25.2657 11.6016 27.0005 11.6016 29.1328C11.6016 31.2652 13.3364 33 15.4687 33C17.6011 33 19.3359 31.2652 19.3359 29.1328C19.3359 29.0324 19.3359 17.2957 19.3359 17.2957L31.0663 13.9757V21.9188C30.497 21.5886 29.8369 21.3985 29.1327 21.3985C27.0004 21.3985 25.2656 23.1333 25.2656 25.2657C25.2656 27.398 27.0004 29.1328 29.1327 29.1328C31.2651 29.1328 32.9999 27.398 32.9999 25.2657C32.9999 25.1799 32.9999 8.83019 32.9999 8.83019C33 8.52726 32.8579 8.2418 32.6163 8.05907ZM15.4688 31.0664C14.4026 31.0664 13.5352 30.199 13.5352 29.1328C13.5352 28.0667 14.4026 27.1993 15.4688 27.1993C16.535 27.1993 17.4024 28.0667 17.4024 29.1328C17.4024 30.199 16.535 31.0664 15.4688 31.0664ZM29.1328 27.1993C28.0666 27.1993 27.1992 26.3318 27.1992 25.2657C27.1992 24.1995 28.0666 23.3321 29.1328 23.3321C30.199 23.3321 31.0664 24.1995 31.0664 25.2657C31.0664 26.3318 30.199 27.1993 29.1328 27.1993ZM31.0664 11.9663L19.336 15.2862V13.4285L31.0664 10.1086V11.9663Z" fill="#636363"/>
<path d="M13.4902 6.86322C11.3453 5.29083 9.77383 3.73352 8.68625 2.10215L7.57192 0.430828C7.33558 0.0763368 6.89504 -0.0816372 6.48737 0.04179C6.07965 0.165282 5.80076 0.541106 5.80076 0.96714V16.1182C5.23145 15.788 4.57132 15.5979 3.86717 15.5979C1.73481 15.5979 0 17.3328 0 19.4651C0 21.5975 1.73481 23.3323 3.86717 23.3323C5.99953 23.3323 7.73434 21.5975 7.73434 19.4651V4.08621C8.88979 5.575 10.4084 7.00167 12.347 8.42279C13.091 8.96806 13.5351 9.84327 13.5351 10.764C13.5351 12.3633 12.234 13.6644 10.6347 13.6644C10.1008 13.6644 9.66793 14.0973 9.66793 14.6312C9.66793 15.1651 10.1008 15.598 10.6347 15.598C13.3002 15.5979 15.4687 13.4294 15.4687 10.764C15.4687 9.22955 14.729 7.7713 13.4902 6.86322ZM3.86717 21.3987C2.80099 21.3987 1.93359 20.5313 1.93359 19.4651C1.93359 18.3989 2.80099 17.5315 3.86717 17.5315C4.93335 17.5315 5.80076 18.3989 5.80076 19.4651C5.80076 20.5313 4.93335 21.3987 3.86717 21.3987Z" fill="#636363"/>
</g>
<defs>
<clipPath id="clip0">
<rect width="33" height="33" fill="white"/>
</clipPath>
</defs>
</svg>
