<svg width="38" height="38" viewBox="0 0 38 38" fill="none" xmlns="http://www.w3.org/2000/svg">
<g clip-path="url(#clip0)">
<path d="M37.8825 27.8419L36.3192 19.3385C35.8167 15.4517 32.4905 12.5251 28.5684 12.5251H9.4312C5.50914 12.5251 2.18295 15.4517 1.68043 19.3386L0.117152 27.8419C-0.660097 32.0698 2.52713 36.0182 6.8023 36.1897C10.8759 36.3528 14.1487 33.0271 14.1615 29.0588C14.1617 29.0447 13.7019 29.0496 23.8382 29.0496C23.8382 33.0043 27.1113 36.3538 31.1974 36.1897C35.4532 36.0189 38.6636 32.0901 37.8825 27.8419ZM33.6913 33.083C31.8562 34.3753 29.3132 34.2655 27.5959 32.6158C26.6269 31.6849 26.0711 30.3801 26.0711 29.0359C26.0711 27.8362 25.0822 26.8166 23.8381 26.8166H14.1615C12.9177 26.8166 11.9285 27.836 11.9285 29.0359C11.9285 31.7595 9.69164 34.0706 6.89177 33.9585C4.33196 33.8558 2.30941 31.7609 2.22895 29.2425C2.20877 28.612 2.18644 28.9363 3.88222 19.7119C3.88609 19.6909 3.88937 19.6698 3.89197 19.6485C4.24048 16.8605 6.6218 14.7581 9.43112 14.7581H28.5683C31.3777 14.7581 33.7589 16.8605 34.1075 19.6485C34.1135 19.6976 34.003 19.0906 35.6861 28.2457C36.0427 30.182 35.1736 32.039 33.6913 33.083Z" fill="#636363"/>
<path d="M13.6397 20.2663H11.7788V18.4055C11.7788 17.7888 11.2789 17.2889 10.6623 17.2889C10.0457 17.2889 9.54576 17.7888 9.54576 18.4055V20.2663H7.68488C7.06826 20.2663 6.56836 20.7662 6.56836 21.3829C6.56836 21.9995 7.06826 22.4994 7.68488 22.4994H9.54576V24.3603C9.54576 24.9769 10.0457 25.4768 10.6623 25.4768C11.2789 25.4768 11.7788 24.9769 11.7788 24.3603V22.4994H13.6397C14.2563 22.4994 14.7562 21.9995 14.7562 21.3829C14.7562 20.7662 14.2563 20.2663 13.6397 20.2663Z" fill="#636363"/>
<path d="M28.4317 18.1873C28.2935 17.528 27.64 17.1503 27.0122 17.3372C26.3681 17.5471 26.1036 18.1857 26.2686 18.7292C26.473 19.368 27.1137 19.6401 27.6606 19.4735C28.2383 19.2891 28.535 18.7391 28.4317 18.1873Z" fill="#636363"/>
<path d="M30.3138 20.2663C29.6972 20.2663 29.1973 20.7662 29.1973 21.3828V21.4573C29.1973 22.0739 29.6972 22.5738 30.3138 22.5738C30.9304 22.5738 31.4303 22.0739 31.4303 21.4573V21.3828C31.4303 20.7661 30.9304 20.2663 30.3138 20.2663Z" fill="#636363"/>
<path d="M24.3587 20.2663C23.7421 20.2663 23.2422 20.7662 23.2422 21.3828V21.4573C23.2422 22.0739 23.7421 22.5738 24.3587 22.5738C24.9753 22.5738 25.4752 22.0739 25.4752 21.4573V21.3828C25.4752 20.7661 24.9753 20.2663 24.3587 20.2663Z" fill="#636363"/>
<path d="M28.4312 24.1422C28.293 23.4829 27.6395 23.1051 27.0117 23.2921C26.3703 23.5011 26.1038 24.1321 26.2681 24.6848C26.4813 25.337 27.1235 25.5919 27.66 25.4284C28.2356 25.2447 28.5349 24.6959 28.4312 24.1422Z" fill="#636363"/>
<path d="M16.1063 7.76943C15.6703 8.20547 15.6703 8.91238 16.1063 9.34842C16.5423 9.78438 17.2493 9.78438 17.6853 9.34842C18.4125 8.62119 19.5897 8.62104 20.317 9.34842C20.753 9.78446 21.4599 9.78446 21.8959 9.34842C22.332 8.91238 22.332 8.20547 21.8959 7.76943C20.2998 6.17317 17.7026 6.17325 16.1063 7.76943Z" fill="#636363"/>
<path d="M14.3162 5.9798C16.9051 3.39088 21.0957 3.39043 23.6849 5.9798C24.1209 6.41584 24.8279 6.41584 25.2639 5.9798C25.7 5.54376 25.7 4.83685 25.2639 4.40081C21.8024 0.939212 16.1992 0.938765 12.7372 4.40081C12.3011 4.83685 12.3011 5.54376 12.7372 5.9798C13.1732 6.41584 13.8802 6.41584 14.3162 5.9798Z" fill="#636363"/>
</g>
<defs>
<clipPath id="clip0">
<rect width="38" height="38" fill="white"/>
</clipPath>
</defs>
</svg>
