<svg width="141" height="141" viewBox="0 0 141 141" fill="none" xmlns="http://www.w3.org/2000/svg">
<path fill-rule="evenodd" clip-rule="evenodd" d="M0 0L89.1378 0L141 52V141L0 0Z" fill="#E9745D"/>
<path d="M61.842 21.7273C61.989 20.743 61.5704 19.7587 60.5861 18.7291L56.6376 14.7807L48.4918 22.9265L52.18 26.6148C52.5873 27.0221 53.0173 27.3841 53.4472 27.6557C53.8771 27.9498 54.3183 28.1195 54.7822 28.1761C55.1782 28.2327 55.5855 28.21 56.0041 28.1082C56.6263 27.9838 57.1807 27.6557 57.6559 27.1805C58.1311 26.7053 58.4252 26.2075 58.5497 25.6758C58.6515 25.1214 58.5836 24.5783 58.3121 24.0126C58.7194 24.1484 59.0927 24.205 59.3982 24.171C59.9526 24.1145 60.473 23.8429 60.9708 23.3451C61.4573 22.8586 61.7401 22.3269 61.842 21.7273ZM57.0449 21.6141L55.0424 19.6116L56.8413 17.8127L58.6289 19.6003C59.0248 19.9963 59.3077 20.3696 59.4661 20.709C59.6471 21.1163 59.5453 21.5123 59.1606 21.897C58.8212 22.2364 58.4818 22.3722 58.1197 22.2816C57.7577 22.1911 57.407 21.9762 57.0449 21.6141ZM53.5264 25.1327L51.5239 23.1302L53.6961 20.9579L55.7212 22.9831C56.072 23.3565 56.2982 23.6732 56.4114 23.9448C56.6037 24.4539 56.4906 24.9291 56.072 25.3477C55.5628 25.8568 55.0311 26.0039 54.5107 25.8228C54.2052 25.721 53.8884 25.4947 53.5264 25.1327ZM67.8033 30.4492C67.5884 29.8496 67.2263 29.3065 66.7285 28.8087C65.88 27.9602 64.9296 27.5529 63.8435 27.5755C62.7461 27.6094 61.6939 28.1412 60.6531 29.182C59.5443 30.2908 59.0239 31.3995 59.1257 32.4743C59.2049 33.5491 59.6348 34.4769 60.4041 35.2462C61.3319 36.1739 62.3501 36.6038 63.4475 36.5246C64.149 36.4794 64.7034 36.3097 65.0993 36.0042L63.4815 34.3864C63.2326 34.4769 62.9837 34.5221 62.7913 34.5108C62.3954 34.4769 62.0446 34.3298 61.7165 34.0017C61.4111 33.6962 61.2187 33.3455 61.1509 32.9835C61.049 32.3838 61.2753 31.7729 61.8636 31.1393L65.9818 35.2575C66.5022 34.7597 66.8869 34.3298 67.1245 34.0243C67.5318 33.4813 67.7807 32.9156 67.9051 32.3159C68.0522 31.6484 68.0183 31.0262 67.8033 30.4492ZM64.2395 29.6007C64.6694 29.578 65.0767 29.7364 65.4387 30.0985C65.7782 30.4379 65.9479 30.8339 65.9592 31.2751C65.9705 31.7163 65.7668 32.1462 65.3822 32.5988L62.9384 30.155C63.3797 29.8043 63.8096 29.6233 64.2395 29.6007ZM69.2843 39.8724L67.689 38.2771C67.0668 38.8994 66.7839 39.6348 66.8405 40.4833C66.8971 41.3318 67.3949 42.2369 68.3339 43.176C69.2616 44.1037 70.1441 44.6015 70.9587 44.6694C71.7846 44.7486 72.4861 44.477 73.0857 43.8774C73.5382 43.4249 73.7532 42.8931 73.7532 42.2822C73.7419 41.6599 73.493 40.9811 73.0178 40.2118C72.2824 39.0691 71.8864 38.3563 71.8185 38.1301C71.7393 37.8925 71.7846 37.6888 71.9769 37.4965C72.1127 37.3607 72.305 37.3042 72.5766 37.3494C72.8141 37.3833 73.1196 37.5757 73.459 37.9151C73.8776 38.3337 74.07 38.7297 74.0247 39.1143C73.9908 39.3293 73.889 39.5443 73.7079 39.7705L75.2805 41.3431C75.948 40.5399 76.1969 39.7479 76.0386 38.9786C75.8575 38.2093 75.3824 37.4399 74.6357 36.6932C73.8437 35.9013 73.0404 35.4826 72.2032 35.4374C71.366 35.4148 70.6645 35.6637 70.1102 36.218C69.635 36.6932 69.42 37.2023 69.4427 37.7228C69.4766 38.2545 69.7481 38.956 70.2573 39.8045C70.97 40.9698 71.366 41.6826 71.4226 41.9201C71.4791 42.1577 71.4112 42.3614 71.2302 42.5424C71.0492 42.7234 70.8343 42.78 70.5627 42.6895C70.2686 42.599 69.9744 42.3953 69.6689 42.0899C69.1485 41.5694 68.8883 41.0829 68.8996 40.687C68.9109 40.472 69.0354 40.1891 69.2843 39.8724ZM80.2801 42.7902L79.4428 41.9529L78.3228 43.073L79.16 43.9102L75.4604 47.6098C75.0758 47.9945 74.8947 48.3565 74.8947 48.7185C74.8834 49.2729 75.2568 49.9178 76.0374 50.6306L76.8068 51.3546L77.9834 50.178L77.825 50.0196C77.7571 49.9744 77.7118 49.9291 77.6553 49.8725C77.3385 49.5558 77.1801 49.3295 77.1688 49.205C77.1801 49.0806 77.2932 48.8996 77.5421 48.6507L80.7213 45.4715L81.7056 46.4558L82.8256 45.3357L81.8414 44.3515L83.5271 42.6657L81.9658 41.1044L80.2801 42.7902ZM88.2539 62.6887L99.183 57.326L97.4181 55.5611L89.4419 59.9621L93.8655 52.0086L92.044 50.1871L86.6474 61.0822L88.2539 62.6887ZM98.3562 65.4597L97.7566 64.9958C97.0665 64.4641 96.4781 64.1247 95.9803 63.9889C95.0752 63.7626 94.2607 64.0115 93.5253 64.7469C92.9483 65.3239 92.6767 65.9349 92.7333 66.6024C92.7672 67.2699 93.0614 67.8808 93.6045 68.4239C94.0344 68.8538 94.5209 69.1366 95.0526 69.2837C95.5052 69.3969 95.9577 69.4421 96.3989 69.4308C96.2745 69.5779 96.184 69.7136 96.0822 69.8381C96.003 69.9625 95.9238 70.1096 95.8446 70.2793L97.5529 71.9877L97.7905 71.7501C97.734 71.603 97.7113 71.4673 97.7453 71.3428C97.7566 71.2184 97.881 71.0487 98.0734 70.8337C98.3336 70.5509 98.5599 70.3246 98.7522 70.1322L101.513 67.3717C102.237 66.6476 102.474 65.8896 102.226 65.1203C101.965 64.3396 101.524 63.6269 100.857 62.9594C99.8496 61.9524 98.8653 61.5112 97.9263 61.613C97.3267 61.6922 96.7384 61.9864 96.184 62.4729L97.7 63.9889C97.9715 63.8079 98.2205 63.6947 98.4807 63.6608C98.8088 63.6269 99.1708 63.8079 99.5442 64.1812C99.8723 64.5093 100.076 64.8035 100.155 65.0637C100.246 65.3352 100.144 65.5955 99.8949 65.8444C99.6912 66.048 99.431 66.0819 99.1142 65.9462C98.9332 65.8783 98.6843 65.7199 98.3562 65.4597ZM98.5712 67.1454L97.9829 67.7337C97.4511 68.2429 96.9307 68.4691 96.4555 68.3786C95.969 68.2994 95.5504 68.0845 95.211 67.7451C94.996 67.5301 94.8942 67.2925 94.8603 67.0097C94.8263 66.7494 94.9395 66.4779 95.211 66.2064C95.5165 65.9009 95.8559 65.8104 96.2519 65.9122C96.4668 65.9688 96.7836 66.1272 97.1796 66.41L97.5982 66.6929C97.8132 66.84 97.9829 66.9418 98.1299 66.9984C98.2657 67.0662 98.4128 67.1228 98.5712 67.1454ZM108.47 66.6125L100.324 74.7584L101.896 76.331L110.042 68.1852L108.47 66.6125ZM109.075 78.7358L112.707 75.1041L111.089 73.4863L107.458 77.118C106.767 77.8081 106.338 78.419 106.157 78.9395C105.828 79.8785 106.111 80.8175 106.994 81.7C107.311 82.0168 107.616 82.2317 107.933 82.3901C108.238 82.5372 108.634 82.6164 109.098 82.6504C109.245 82.6617 109.392 82.6504 109.551 82.6051L109.822 82.5598L108.974 83.4084L110.512 84.947L116.531 78.9281L114.925 77.3216L111.655 80.5913C111.259 80.9872 110.908 81.2475 110.569 81.3832C109.935 81.6095 109.347 81.4511 108.815 80.9194C108.397 80.5008 108.261 80.0708 108.419 79.6183C108.51 79.3694 108.736 79.0752 109.075 78.7358ZM123.337 85.983C123.122 85.3833 122.76 84.8403 122.262 84.3425C121.414 83.4939 120.463 83.0867 119.377 83.1093C118.28 83.1432 117.228 83.675 116.187 84.7158C115.078 85.8246 114.558 86.9333 114.659 88.0081C114.739 89.0829 115.169 90.0106 115.938 90.78C116.866 91.7077 117.884 92.1376 118.981 92.0584C119.683 92.0132 120.237 91.8435 120.633 91.538L119.015 89.9201C118.766 90.0106 118.517 90.0559 118.325 90.0446C117.929 90.0106 117.578 89.8636 117.25 89.5355C116.945 89.23 116.753 88.8793 116.685 88.5172C116.583 87.9176 116.809 87.3067 117.397 86.6731L121.516 90.7913C122.036 90.2935 122.421 89.8636 122.658 89.5581C123.066 89.015 123.314 88.4494 123.439 87.8497C123.586 87.1822 123.552 86.56 123.337 85.983ZM119.773 85.1344C120.203 85.1118 120.61 85.2702 120.973 85.6322C121.312 85.9716 121.482 86.3676 121.493 86.8089C121.504 87.2501 121.301 87.68 120.916 88.1326L118.472 85.6888C118.913 85.3381 119.343 85.1571 119.773 85.1344Z" fill="white"/>
</svg>
