<svg width="228" height="119" viewBox="0 0 228 119" fill="none" xmlns="http://www.w3.org/2000/svg">
<rect x="81" width="66" height="100" rx="4" fill="url(#paint0_linear)"/>
<circle cx="114.5" cy="37.5" r="12.5" stroke="#6CB0AA" stroke-width="2"/>
<path d="M116.29 31.5V42H114.34V33.135H112.12V31.5H116.29Z" fill="#6CB0AA"/>
<rect y="20" width="66" height="99" rx="4" fill="url(#paint1_linear)"/>
<circle cx="33" cy="56" r="13" stroke="#6CB0AA" stroke-width="2"/>
<path d="M37.265 58.35V60H29.525V58.695L33.695 54.735C34.165 54.285 34.48 53.895 34.64 53.565C34.81 53.225 34.895 52.89 34.895 52.56C34.895 52.07 34.73 51.695 34.4 51.435C34.07 51.175 33.585 51.045 32.945 51.045C31.875 51.045 31.055 51.41 30.485 52.14L29.12 51.09C29.53 50.54 30.08 50.115 30.77 49.815C31.47 49.505 32.25 49.35 33.11 49.35C34.25 49.35 35.16 49.62 35.84 50.16C36.52 50.7 36.86 51.435 36.86 52.365C36.86 52.935 36.74 53.47 36.5 53.97C36.26 54.47 35.8 55.04 35.12 55.68L32.315 58.35H37.265Z" fill="#6CB0AA"/>
<rect x="162" y="19" width="66" height="100" rx="4" fill="url(#paint2_linear)"/>
<circle cx="195" cy="56" r="13" stroke="#6CB0AA" stroke-width="2"/>
<path d="M196.13 53.835C197.1 53.955 197.84 54.285 198.35 54.825C198.86 55.365 199.115 56.04 199.115 56.85C199.115 57.46 198.96 58.015 198.65 58.515C198.34 59.015 197.87 59.415 197.24 59.715C196.62 60.005 195.86 60.15 194.96 60.15C194.21 60.15 193.485 60.045 192.785 59.835C192.095 59.615 191.505 59.315 191.015 58.935L191.855 57.42C192.235 57.74 192.695 57.995 193.235 58.185C193.785 58.365 194.35 58.455 194.93 58.455C195.62 58.455 196.16 58.315 196.55 58.035C196.95 57.745 197.15 57.355 197.15 56.865C197.15 56.375 196.96 55.995 196.58 55.725C196.21 55.445 195.64 55.305 194.87 55.305H193.91V53.97L196.295 51.135H191.525V49.5H198.68V50.805L196.13 53.835Z" fill="#6CB0AA"/>
<defs>
<linearGradient id="paint0_linear" x1="81" y1="0" x2="81" y2="100" gradientUnits="userSpaceOnUse">
<stop stop-color="white" stop-opacity="0.6"/>
<stop offset="1" stop-color="white" stop-opacity="0.15"/>
</linearGradient>
<linearGradient id="paint1_linear" x1="0" y1="20" x2="0" y2="119" gradientUnits="userSpaceOnUse">
<stop stop-color="white" stop-opacity="0.6"/>
<stop offset="1" stop-color="white" stop-opacity="0.15"/>
</linearGradient>
<linearGradient id="paint2_linear" x1="162" y1="19" x2="162" y2="119" gradientUnits="userSpaceOnUse">
<stop stop-color="white" stop-opacity="0.6"/>
<stop offset="1" stop-color="white" stop-opacity="0.15"/>
</linearGradient>
</defs>
</svg>
