<svg width="107" height="107" viewBox="0 0 107 107" fill="none" xmlns="http://www.w3.org/2000/svg">
<g opacity="0.25">
<path d="M30.2298 46.9406L42.844 41.7949C43.7483 41.4259 44.3611 40.5707 44.4187 39.5954C44.4796 38.62 43.9734 37.6973 43.1199 37.2233L30.7003 30.3082C29.471 29.6242 27.9286 30.066 27.2462 31.292C26.5622 32.5179 27.004 34.0654 28.23 34.7478L36.0255 39.0875L28.3129 42.2352C27.0125 42.7651 26.3895 44.2485 26.9194 45.5472C27.3223 46.531 28.2705 47.1286 29.273 47.1286C29.5932 47.1284 29.9166 47.0675 30.2298 46.9406Z" fill="#42817E"/>
<path d="M63.226 41.7017L75.6457 48.0935C76.0164 48.2849 76.4143 48.3761 76.8056 48.3761C77.7268 48.3761 78.6155 47.8732 79.0661 46.9962C79.7078 45.7483 79.2167 44.2177 77.9706 43.5742L69.7687 39.3549L78.0434 34.7476C79.2676 34.0653 79.7095 32.5177 79.0272 31.2917C78.3449 30.0658 76.7973 29.624 75.5731 30.3079L63.1534 37.223C62.3339 37.6784 61.8343 38.547 61.8479 39.4835C61.863 40.4199 62.3946 41.2717 63.226 41.7017Z" fill="#42817E"/>
<path d="M53.4981 0C24.0062 0 0.0117188 23.9993 0.0117188 53.5C0.0117188 82.999 24.006 107 53.4981 107C82.992 107 106.986 82.999 106.986 53.5C106.986 23.9993 82.992 0 53.4981 0ZM53.4981 101.919C26.8065 101.919 5.09139 80.1982 5.09139 53.5C5.09139 26.8018 26.8067 5.08118 53.4981 5.08118C80.1896 5.08118 101.907 26.8016 101.907 53.4998C101.907 80.1981 80.1898 101.919 53.4981 101.919Z" fill="#42817E"/>
<path d="M79.5222 79.299C78.7494 68.3725 69.6434 59.7073 58.5587 59.7073H49.3206C38.4005 59.7073 29.4003 68.1498 28.3986 78.883C28.306 79.2147 28.2824 79.5681 28.3277 79.9096C28.3132 80.2325 28.3047 80.5597 28.3047 80.8861C28.3047 81.5618 28.5723 82.2261 29.0498 82.7019C29.5272 83.1777 30.1706 83.4679 30.8446 83.4679C30.8463 83.4679 30.8463 83.4679 30.848 83.4679L77.0401 83.3789C78.4422 83.3772 79.5765 82.2261 79.5765 80.8242C79.5765 80.5742 79.5704 80.3164 79.562 80.0684C79.5865 79.8152 79.5738 79.55 79.5222 79.299ZM49.3207 64.7988H58.5589C64.4442 64.7988 69.5919 68.0269 72.3525 72.8043C64.7872 67.9598 51.3428 62.9568 35.4323 72.9996C38.1682 68.1104 43.3683 64.7988 49.3207 64.7988ZM71.4973 78.2856L36.5951 78.3364C52.5486 67.305 65.4719 73.76 71.4973 78.2856Z" fill="#42817E"/>
</g>
</svg>
