<svg width="53" height="54" viewBox="0 0 53 54" fill="none" xmlns="http://www.w3.org/2000/svg">
<circle cx="26.4031" cy="27" r="25.2" fill="url(#paint0_linear)" stroke="white" stroke-width="1.8"/>
<path d="M14.6328 20.4898V35.2837C14.6328 38.1883 16.9875 40.543 19.8921 40.543H34.686C37.5907 40.543 39.9453 38.1883 39.9453 35.2837V20.4898C39.9453 17.5852 37.5907 15.2305 34.686 15.2305H19.8921C16.9875 15.2305 14.6328 17.5852 14.6328 20.4898ZM29.9703 35.0587C23.727 37.2129 17.963 31.4488 20.1171 25.2055C20.8429 23.1013 22.5034 21.4406 24.6076 20.7148C30.8511 18.5606 36.6152 24.3247 34.461 30.5682C33.7352 32.6724 32.0747 34.3329 29.9703 35.0587ZM36.0723 20.2327C35.9729 20.7529 35.5425 21.0556 35.0973 21.0556C34.8263 21.0556 34.55 20.9437 34.3385 20.701C34.3198 20.6795 34.3024 20.6565 34.2869 20.6326C34.0686 20.2989 34.0618 19.9024 34.2474 19.5809C34.3787 19.3534 34.5907 19.1908 34.8445 19.1229C35.098 19.0546 35.3631 19.0896 35.5904 19.2211C35.9121 19.4065 36.1043 19.7533 36.0823 20.151C36.0808 20.1782 36.0775 20.2059 36.0723 20.2327Z" fill="white"/>
<path d="M27.2898 21.7375C23.899 21.7375 21.1406 24.4959 21.1406 27.8868C21.1406 31.2776 23.899 34.036 27.2898 34.036C30.6807 34.036 33.4391 31.2776 33.4391 27.8868C33.4391 24.4959 30.6807 21.7375 27.2898 21.7375Z" fill="white"/>
<defs>
<linearGradient id="paint0_linear" x1="1.20312" y1="1.80002" x2="1.20312" y2="52.2" gradientUnits="userSpaceOnUse">
<stop stop-color="#F18B6D"/>
<stop offset="1" stop-color="#AD3C3B"/>
</linearGradient>
</defs>
</svg>
