<svg width="55" height="54" viewBox="0 0 55 54" fill="none" xmlns="http://www.w3.org/2000/svg">
<circle cx="27.4031" cy="27" r="25.2" fill="url(#paint0_linear)" stroke="white" stroke-width="1.8"/>
<g clip-path="url(#clip0)">
<path d="M27.4078 14.4H27.4015C20.4542 14.4 14.8047 20.0511 14.8047 27C14.8047 29.7562 15.693 32.3109 17.2034 34.3851L15.6331 39.066L20.4763 37.5178C22.4686 38.8377 24.8453 39.6 27.4078 39.6C34.3552 39.6 40.0047 33.9473 40.0047 27C40.0047 20.0526 34.3552 14.4 27.4078 14.4ZM34.7395 32.1927C34.4355 33.0511 33.229 33.763 32.2667 33.9709C31.6084 34.1111 30.7484 34.2229 27.8536 33.0228C24.1507 31.4887 21.7662 27.726 21.5803 27.4819C21.4024 27.2378 20.0841 25.4895 20.0841 23.6814C20.0841 21.8733 21.0023 20.9929 21.3724 20.6149C21.6764 20.3046 22.1788 20.1629 22.6608 20.1629C22.8167 20.1629 22.9569 20.1708 23.0829 20.1771C23.453 20.1928 23.6389 20.2149 23.883 20.7992C24.187 21.5316 24.9272 23.3397 25.0154 23.5255C25.1052 23.7114 25.195 23.9634 25.069 24.2075C24.9508 24.4595 24.8469 24.5713 24.661 24.7855C24.4752 24.9997 24.2988 25.1635 24.1129 25.3935C23.9428 25.5935 23.7507 25.8077 23.9649 26.1778C24.1791 26.5401 24.9193 27.7481 26.0092 28.7183C27.4157 29.9704 28.556 30.3705 28.9639 30.5406C29.2679 30.6666 29.6302 30.6366 29.8522 30.4004C30.1342 30.0964 30.4822 29.5924 30.8366 29.0963C31.0886 28.7403 31.4068 28.6962 31.7407 28.8222C32.0809 28.9404 33.8811 29.8302 34.2512 30.0145C34.6213 30.2004 34.8655 30.2886 34.9552 30.4445C35.0434 30.6004 35.0434 31.3328 34.7395 32.1927Z" fill="white"/>
</g>
<defs>
<linearGradient id="paint0_linear" x1="2.20312" y1="1.80002" x2="2.20312" y2="52.2" gradientUnits="userSpaceOnUse">
<stop stop-color="#F18B6D"/>
<stop offset="1" stop-color="#AD3C3B"/>
</linearGradient>
<clipPath id="clip0">
<rect width="25.2" height="25.2" fill="white" transform="translate(14.8047 14.3999)"/>
</clipPath>
</defs>
</svg>
