<svg width="36" height="36" viewBox="0 0 36 36" fill="none" xmlns="http://www.w3.org/2000/svg">
<g clip-path="url(#clip0)">
<path d="M34.9781 8.58897C34.9104 8.58664 33.52 8.53969 31.479 8.5848V4.40019C31.479 3.78332 30.9523 3.29407 30.3321 3.34504C26.2626 3.68478 21.085 5.48301 18 8.76289C14.915 5.48301 9.73744 3.68478 5.66788 3.34504C5.04882 3.29464 4.52096 3.78169 4.52096 4.40019V8.69795C3.36134 8.65419 2.26447 8.62334 1.09024 8.58882C0.498 8.57012 0 9.04715 0 9.64715V28.9297C0 29.487 0.431788 29.9488 0.987741 29.9862C5.1996 30.2696 12.2548 30.3016 17.5847 32.5748C18.0596 32.7777 18.4861 32.5446 18.4155 32.5748C23.7452 30.3016 30.7991 30.2698 35.0124 29.9862C35.5683 29.9488 36.0001 29.487 36.0001 28.9297V9.64715C36 9.07673 35.5482 8.60887 34.9781 8.58897ZM29.3614 5.59108V23.7385C26.308 24.4215 22.4384 25.879 19.0588 28.9694C19.0588 28.0373 19.0588 11.2733 19.0588 10.7692C21.3755 7.87857 25.763 6.13631 29.3614 5.59108ZM6.63861 5.59108C10.237 6.13631 14.6245 7.87857 16.9412 10.7692V28.9694C13.5616 25.879 9.69198 24.4215 6.63861 23.7385V5.59108ZM2.11765 27.9334V10.7376C2.87584 10.76 3.68675 10.7854 4.52096 10.8172V24.6015C4.52096 25.1109 4.88379 25.5481 5.38447 25.6421C7.80219 26.0959 10.9462 27.0809 13.8764 29.2018C9.69586 28.2642 5.31995 28.1135 2.11765 27.9334ZM33.8824 27.9334C30.6853 28.1132 26.3058 28.2637 22.1235 29.2018C25.0537 27.0809 28.1978 26.0959 30.6155 25.6421C31.1161 25.5481 31.479 25.1109 31.479 24.6015V10.7032C32.4535 10.6813 33.2836 10.6811 33.8823 10.6865V27.9334H33.8824Z" fill="#FFF"/>
<path d="M14.195 13.2082C13.3749 12.6369 11.9611 11.9356 10.4522 11.6806C9.87588 11.5828 9.32924 11.9716 9.23176 12.5482C9.13435 13.1248 9.52279 13.6712 10.0994 13.7686C11.2643 13.9655 12.3816 14.5257 12.9844 14.9457C13.4641 15.2799 14.1241 15.1622 14.4585 14.6822C14.7927 14.2024 14.6747 13.5424 14.195 13.2082Z" fill="#FFF"/>
<path d="M14.0889 19.1708C13.3344 18.7101 11.8586 17.9016 10.4522 17.6639C9.87588 17.5662 9.32924 17.9548 9.23176 18.5315C9.13435 19.1081 9.5228 19.6545 10.0994 19.7519C11.195 19.937 12.4825 20.671 12.9851 20.9781C13.4848 21.2831 14.1362 21.1248 14.4407 20.6263C14.7455 20.1273 14.588 19.4757 14.0889 19.1708Z" fill="#FFF"/>
<path d="M23.0138 14.9457C23.6166 14.5257 24.7338 13.9655 25.8988 13.7686C26.4753 13.6712 26.8638 13.1248 26.7664 12.5482C26.669 11.9716 26.1224 11.5825 25.546 11.6806C24.0371 11.9355 22.6233 12.6368 21.8032 13.2082C21.3234 13.5424 21.2055 14.2024 21.5397 14.6822C21.8742 15.1623 22.5344 15.2797 23.0138 14.9457Z" fill="#FFF"/>
<path d="M25.5462 17.6639C24.1398 17.9015 22.664 18.7101 21.9094 19.1709C21.4104 19.4757 21.2529 20.1273 21.5577 20.6264C21.8625 21.1254 22.5141 21.2829 23.0132 20.9781C23.5159 20.6711 24.8033 19.9371 25.899 19.7519C26.4755 19.6545 26.864 19.1082 26.7666 18.5315C26.6691 17.9549 26.1226 17.5659 25.5462 17.6639Z" fill="#FFF"/>
</g>
<defs>
<clipPath id="clip0">
<rect width="36" height="36" fill="white"/>
</clipPath>
</defs>
</svg>
