<svg width="32" height="32" viewBox="0 0 32 32" fill="none" xmlns="http://www.w3.org/2000/svg">
<path d="M28.1072 26.3903C27.7023 24.19 25.7911 22.5185 23.5 22.5185C21.9683 22.5185 20.6059 23.2655 19.75 24.4181C18.8941 23.2655 17.5317 22.5185 16 22.5185C14.4683 22.5185 13.1059 23.2655 12.25 24.4181C11.3941 23.2655 10.0317 22.5185 8.5 22.5185C6.20887 22.5185 4.29769 24.19 3.89281 26.3903C1.7175 26.7906 0 28.7105 0 31.0519V32H32V31.0519C32 28.7148 30.2863 26.7913 28.1072 26.3903ZM2.04594 30.1037C2.45056 29.0113 3.52562 28.2074 4.75 28.2074C5.97225 28.2074 7.01494 29 7.40188 30.1037H2.04594ZM5.8085 26.4345C6.15894 25.2671 7.23275 24.4148 8.5 24.4148C9.76725 24.4148 10.8411 25.2671 11.1915 26.4345C10.0997 26.6904 9.15244 27.3321 8.5 28.2107C7.8475 27.3321 6.90031 26.6904 5.8085 26.4345ZM9.59813 30.1037C9.98506 29 11.0278 28.2074 12.25 28.2074C13.4722 28.2074 14.5149 29 14.9019 30.1037H9.59813ZM13.3085 26.4345C13.6589 25.2671 14.7327 24.4148 16 24.4148C17.2673 24.4148 18.3411 25.2671 18.6915 26.4345C17.5997 26.6904 16.6524 27.3321 16 28.2107C15.3475 27.3321 14.4003 26.6904 13.3085 26.4345ZM17.0981 30.1037C17.4851 29 18.5278 28.2074 19.75 28.2074C20.9722 28.2074 22.0149 29 22.4019 30.1037H17.0981ZM20.8085 26.4345C21.1589 25.2671 22.2327 24.4148 23.5 24.4148C24.7673 24.4148 25.8411 25.2671 26.1915 26.4345C25.0997 26.6904 24.1524 27.3321 23.5 28.2107C22.8475 27.3321 21.9003 26.6904 20.8085 26.4345ZM24.5981 30.1037C24.9851 29 26.0278 28.2074 27.25 28.2074C28.4744 28.2074 29.5494 29.0113 29.9541 30.1037H24.5981Z" fill="white"/>
<path d="M0 20.7407H32V0H0V20.7407ZM1.875 13.2759C4.012 13.7112 5.625 15.6043 5.625 17.867V18.8666H1.875V13.2759ZM7.5 1.87416H24.5V6.62204C24.5 9.00542 25.7784 11.0958 27.6857 12.2445C25.7784 13.3933 24.5 15.4836 24.5 17.867V18.8666H7.5V17.867C7.5 15.4836 6.22156 13.3933 4.31431 12.2445C6.22156 11.0958 7.5 9.00542 7.5 6.62204V1.87416ZM26.375 18.8666V17.867C26.375 15.6043 27.988 13.7113 30.125 13.2759V18.8666H26.375ZM30.125 11.2132C27.988 10.7779 26.375 8.88478 26.375 6.62204V1.87416H30.125V11.2132ZM5.625 1.87416V6.62204C5.625 8.88472 4.012 10.7778 1.875 11.2132V1.87416H5.625Z" fill="white"/>
<path d="M13.6289 6.51852V14.2222L20.74 10.3704L13.6289 6.51852ZM15.5168 9.60003L16.9642 10.3704L15.5168 11.1407V9.60003Z" fill="white"/>
</svg>
