<svg width="39" height="39" viewBox="0 0 39 39" fill="none" xmlns="http://www.w3.org/2000/svg">
<g clip-path="url(#clip0)">
<path d="M12.6948 28.3008C13.1396 28.6225 13.405 29.1539 13.405 29.7234C13.405 30.3393 13.405 35.1337 13.405 35.7166C13.405 37.5268 14.8782 39 16.6885 39L22.3859 39C24.1971 39 25.6699 37.5268 25.6699 35.7166L25.6699 29.7234C25.6699 29.1548 25.9365 28.6219 26.3819 28.2993C35.4529 21.7379 30.9457 7.29079 19.6993 7.14023C8.21078 6.97598 3.54139 21.6792 12.6948 28.3008ZM19.6681 9.47716C28.582 9.59618 32.3117 21.1225 25.0126 26.4064C23.9608 27.1669 23.333 28.4068 23.333 29.7234L23.333 30.5896L20.7065 30.5896L20.7065 23.6698C22.59 23.1566 23.9781 21.4305 23.9781 19.3863L23.9781 16.1148C23.9781 14.5714 21.6411 14.5685 21.6411 16.1148L21.6411 19.3863C21.6411 22.1868 17.4347 22.1889 17.4347 19.3863L17.4347 16.1148C17.4347 14.5714 15.0978 14.5685 15.0978 16.1148L15.0978 19.3863C15.0978 21.4305 16.4858 23.1566 18.3696 23.6698L18.3696 30.5896L15.742 30.5896L15.742 29.7234C15.742 28.4062 15.115 27.1669 14.065 26.4072C6.69954 21.0803 10.5257 9.31678 19.6681 9.47716ZM23.333 35.7166C23.333 36.2385 22.9087 36.6631 22.3859 36.6631L16.6885 36.6631C16.1666 36.6631 15.742 36.2385 15.742 35.7166L15.742 32.9265L23.333 32.9265L23.333 35.7166Z" fill="#FFF"/>
<path d="M1.3107 20.5548L4.57389 20.5548C6.11786 20.5548 6.11934 18.2179 4.57389 18.2179L1.3107 18.2179C-0.233269 18.2179 -0.234757 20.5548 1.3107 20.5548Z" fill="#FFF"/>
<path d="M34.5023 20.5548L37.7652 20.5548C39.3092 20.5548 39.3109 18.2178 37.7652 18.2178L34.5023 18.2178C32.958 18.2178 32.9565 20.5548 34.5023 20.5548Z" fill="#FFF"/>
<path d="M8.12964 9.63103C9.22104 10.7227 10.8754 9.07194 9.78191 7.97846L7.47474 5.67128C6.3878 4.58405 4.71857 6.21996 5.82217 7.32386L8.12964 9.63103Z" fill="#FFF"/>
<path d="M20.7051 4.42152L20.7051 1.15863C20.7051 -0.385334 18.3681 -0.387119 18.3681 1.15863L18.3681 4.42152C18.3681 5.96549 20.7051 5.96728 20.7051 4.42152Z" fill="#FFF"/>
<path d="M30.9459 9.63101L33.2534 7.32383C34.3659 6.2113 32.6705 4.60157 31.6008 5.67125L29.2936 7.97843C28.2019 9.07013 29.853 10.7242 30.9459 9.63101Z" fill="#FFF"/>
</g>
<defs>
<clipPath id="clip0">
<rect width="39" height="39" fill="white" transform="translate(39 39) rotate(-180)"/>
</clipPath>
</defs>
</svg>
