<svg width="36" height="36" viewBox="0 0 36 36" fill="none" xmlns="http://www.w3.org/2000/svg">
<path d="M18 0C15.9097 0 13.9095 0.37575 12.042 1.035C12.0308 1.03725 12.0218 1.04175 12.0128 1.04625C8.63325 2.24325 5.72175 4.41675 3.609 7.23375C3.60675 7.23825 3.60225 7.24275 3.59775 7.2495C1.35 10.2533 0 13.968 0 18C0 27.9247 8.07525 36 18 36C27.9247 36 36 27.9247 36 18C36 8.07525 27.9247 0 18 0ZM31.9972 10.8112C32.841 12.447 33.408 14.247 33.633 16.1528L31.374 13.6868L31.9972 10.8112ZM30.2715 8.15175L29.1667 13.2435L25.6365 14.9715L19.143 10.2397V5.85L23.7712 3.3615C26.3362 4.374 28.5705 6.0345 30.2715 8.15175ZM24.1807 16.695L21.7058 23.625H14.2965L11.8575 16.6973L18.0203 12.204L24.1807 16.695ZM18 2.25C18.9023 2.25 19.7797 2.34225 20.6415 2.4885L18.0225 3.897L15.4035 2.48175C16.2495 2.34225 17.1135 2.25 18 2.25ZM12.267 3.34575L16.8953 5.84325V10.2397L10.404 14.9715L6.85575 13.239L5.75325 8.118C7.45875 6.0075 9.69975 4.35375 12.267 3.34575ZM4.023 10.7708L4.65075 13.6845L2.367 16.1663C2.58975 14.2402 3.16575 12.4223 4.023 10.7708ZM5.01525 26.8965C3.546 24.759 2.58975 22.2458 2.3265 19.53L6.13575 15.3923L9.60975 17.091L12.2265 24.5228L10.0192 27.1732L5.01525 26.8965ZM7.00875 29.2612L9.67275 29.4075L10.4468 31.815C9.1845 31.122 8.0325 30.258 7.00875 29.2612ZM22.0117 33.2122C20.7292 33.552 19.3883 33.75 18 33.75C16.3215 33.75 14.706 33.48 13.1873 32.9917L11.772 28.584L14.0265 25.875H21.978L24.1943 28.5007L22.0117 33.2122ZM25.0155 32.0805L26.2935 29.3197L29.5425 28.6785C28.2555 30.069 26.7255 31.2255 25.0155 32.0805ZM25.9515 27.0945L23.7758 24.5183L26.4263 17.091L29.8845 15.3967L33.6712 19.53C33.4463 21.8723 32.6925 24.0592 31.5495 25.9897L25.9515 27.0945Z" fill="#FFF"/>
</svg>
