<svg width="18" height="19" viewBox="0 0 18 19" fill="none" xmlns="http://www.w3.org/2000/svg">
<path d="M15.6748 11.9998H15.1755V11.5005C15.1755 10.6745 14.5035 10.0025 13.6775 10.0025H9.15021V9.00384C9.61942 9.00384 10.1805 9.00384 10.6482 9.00384C10.924 9.00384 11.1475 8.78027 11.1475 8.5045C11.1475 8.22874 10.924 8.00517 10.6482 8.00517H10.1489V7.0065H11.6469C12.4729 7.0065 13.1449 6.3345 13.1449 5.5085V2.4792C13.1449 1.65321 12.4729 0.981201 11.6469 0.981201H5.65487C4.82887 0.981201 4.15687 1.65321 4.15687 2.4792V5.5085C4.15687 6.3345 4.82887 7.0065 5.65487 7.0065H7.15287V8.00517H6.65354C6.37777 8.00517 6.15421 8.22874 6.15421 8.5045C6.15421 8.78027 6.37777 9.00384 6.65354 9.00384C7.12125 9.00384 7.68233 9.00384 8.15154 9.00384V10.0025H3.62425C2.79825 10.0025 2.12624 10.6745 2.12624 11.5005V11.9998H1.62691C0.80091 11.9998 0.128906 12.6718 0.128906 13.4978V14.4965C0.128906 15.3225 0.80091 15.9945 1.62691 15.9945H2.12624V17.0265H1.62691C1.35114 17.0265 1.12757 17.25 1.12757 17.5258C1.12757 17.8016 1.35114 18.0251 1.62691 18.0251H3.62425C3.90001 18.0251 4.12358 17.8016 4.12358 17.5258C4.12358 17.25 3.90001 17.0265 3.62425 17.0265H3.12491V15.9945H3.62425C4.45024 15.9945 5.12225 15.3225 5.12225 14.4965V13.4978C5.12225 12.6718 4.45024 11.9998 3.62425 11.9998H3.12491V11.5005C3.12491 11.2252 3.34891 11.0012 3.62425 11.0012H8.15154V11.9998H7.65221C6.82621 11.9998 6.15421 12.6718 6.15421 13.4978V14.4965C6.15421 15.3225 6.82621 15.9945 7.65221 15.9945H8.15154V17.0265H7.65221C7.37644 17.0265 7.15287 17.25 7.15287 17.5258C7.15287 17.8016 7.37644 18.0251 7.65221 18.0251H9.64954C9.92531 18.0251 10.1489 17.8016 10.1489 17.5258C10.1489 17.25 9.92531 17.0265 9.64954 17.0265H9.15021V15.9945H9.64954C10.4755 15.9945 11.1475 15.3225 11.1475 14.4965V13.4978C11.1475 12.6718 10.4755 11.9998 9.64954 11.9998H9.15021V11.0012H13.6775C13.9528 11.0012 14.1768 11.2252 14.1768 11.5005V11.9998H13.6775C12.8515 11.9998 12.1795 12.6718 12.1795 13.4978V14.4965C12.1795 15.3225 12.8515 15.9945 13.6775 15.9945H14.1768V17.0265H13.6775C13.4017 17.0265 13.1782 17.25 13.1782 17.5258C13.1782 17.8016 13.4017 18.0251 13.6775 18.0251H15.6748C15.9506 18.0251 16.1742 17.8016 16.1742 17.5258C16.1742 17.25 15.9506 17.0265 15.6748 17.0265H15.1755V15.9945H15.6748C16.5008 15.9945 17.1728 15.3225 17.1728 14.4965V13.4978C17.1728 12.6718 16.5008 11.9998 15.6748 11.9998ZM3.62425 12.9985C3.89958 12.9985 4.12358 13.2225 4.12358 13.4978V14.4965C4.12358 14.7718 3.89958 14.9958 3.62425 14.9958H1.62691C1.35158 14.9958 1.12757 14.7718 1.12757 14.4965V13.4978C1.12757 13.2225 1.35158 12.9985 1.62691 12.9985H3.62425ZM5.65487 6.00783C5.37954 6.00783 5.15554 5.78383 5.15554 5.5085V2.4792C5.15554 2.20387 5.37954 1.97987 5.65487 1.97987H11.6469C11.9222 1.97987 12.1462 2.20387 12.1462 2.4792V5.5085C12.1462 5.78383 11.9222 6.00783 11.6469 6.00783C10.4471 6.00783 6.85031 6.00783 5.65487 6.00783ZM9.64954 12.9985C9.92488 12.9985 10.1489 13.2225 10.1489 13.4978V14.4965C10.1489 14.7718 9.92488 14.9958 9.64954 14.9958H7.65221C7.37687 14.9958 7.15287 14.7718 7.15287 14.4965V13.4978C7.15287 13.2225 7.37687 12.9985 7.65221 12.9985H9.64954ZM8.15154 8.00517V7.0065H9.15021V8.00517H8.15154ZM16.1742 14.4965C16.1742 14.7718 15.9502 14.9958 15.6748 14.9958H13.6775C13.4022 14.9958 13.1782 14.7718 13.1782 14.4965V13.4978C13.1782 13.2225 13.4022 12.9985 13.6775 12.9985H15.6748C15.9502 12.9985 16.1742 13.2225 16.1742 13.4978V14.4965Z" fill="#636363"/>
</svg>
