<svg width="15" height="15" viewBox="0 0 15 15" fill="none" xmlns="http://www.w3.org/2000/svg">
<g opacity="0.75">
<path d="M9.375 8.125C9.02938 8.125 8.75 8.405 8.75 8.75V11.25C8.75 11.5944 8.47 11.875 8.125 11.875H6.25V2.5C6.25 1.96625 5.91 1.48937 5.39875 1.31187L5.21375 1.25H8.125C8.47 1.25 8.75 1.53062 8.75 1.875V3.75C8.75 4.095 9.02938 4.375 9.375 4.375C9.72063 4.375 10 4.095 10 3.75V1.875C10 0.84125 9.15875 0 8.125 0H1.40625C1.3825 0 1.3625 0.010625 1.33938 0.01375C1.30938 0.01125 1.28063 0 1.25 0C0.560625 0 0 0.560625 0 1.25V12.5C0 13.0337 0.34 13.5106 0.85125 13.6881L4.6125 14.9419C4.74 14.9812 4.86688 15 5 15C5.68938 15 6.25 14.4394 6.25 13.75V13.125H8.125C9.15875 13.125 10 12.2837 10 11.25V8.75C10 8.405 9.72063 8.125 9.375 8.125Z" fill="white"/>
<path d="M14.8169 5.80812L12.3169 3.30812C12.1381 3.12937 11.8694 3.07562 11.6356 3.1725C11.4025 3.26937 11.25 3.4975 11.25 3.75V5.625H8.75C8.405 5.625 8.125 5.905 8.125 6.25C8.125 6.595 8.405 6.875 8.75 6.875H11.25V8.75C11.25 9.0025 11.4025 9.23062 11.6356 9.3275C11.8694 9.42437 12.1381 9.37062 12.3169 9.19187L14.8169 6.69187C15.0613 6.4475 15.0613 6.0525 14.8169 5.80812Z" fill="white"/>
</g>
</svg>
