<svg width="145" height="125" viewBox="0 0 123 109" fill="blue" xmlns="http://www.w3.org/2000/svg">
<path d="M62.5512 0.00915807C28.5916 -0.571031 0.589353 26.489 0.00916414 60.4486C-0.320383 79.7039 8.26177 97.0097 21.9264 108.518C22.8199 107.739 23.7783 107.024 24.8436 106.444L43.1938 96.4342C45.6004 95.1207 47.0996 92.598 47.0996 89.8549V82.3356C47.0996 82.3356 41.7131 75.8932 39.6593 66.942C37.9558 65.8397 36.814 63.9343 36.814 61.7644V53.535C36.814 51.7249 37.6193 50.1073 38.8702 48.9748V37.0786C38.8702 37.0786 36.4264 18.5659 61.4976 18.5659C86.5687 18.5659 84.1249 37.0786 84.1249 37.0786V48.9748C85.3781 50.1073 86.1811 51.7249 86.1811 53.535V61.7644C86.1811 64.5308 84.3245 66.8585 81.8042 67.6359C80.4001 72.0013 78.3741 76.1624 75.6959 79.9452C75.0206 80.8991 74.3894 81.7067 73.837 82.3356V90.0452C73.837 92.8834 75.4407 95.4804 77.9796 96.7475L97.6294 106.571C98.8083 107.161 99.8736 107.906 100.855 108.734C114.107 97.6828 122.668 81.159 122.986 62.5512C123.571 28.5916 96.5131 0.589347 62.5512 0.00915807Z" fill="#93BDBD"/>
</svg>

