<svg width="80" height="80" viewBox="0 0 80 105" fill="none" xmlns="http://www.w3.org/2000/svg">
<path d="M22.1976 78.432L3.84738 88.4414C2.77055 89.0286 1.8028 89.7503 0.902344 90.5371C11.601 99.5578 25.4118 105 40.5014 105C55.4795 105 69.2022 99.639 79.8707 90.7413C78.8867 89.9104 77.8191 89.1632 76.6355 88.5737L56.9857 78.7499C54.4468 77.4805 52.8432 74.8859 52.8432 72.0476V64.3381C53.3955 63.7091 54.0267 62.9015 54.7021 61.9477C57.3802 58.1648 59.4062 54.0037 60.8103 49.6384C63.3306 48.8609 65.1873 46.5332 65.1873 43.7669V35.5375C65.1873 33.7273 64.3819 32.1097 63.1311 30.9772V19.081C63.1311 19.081 65.5748 0.568359 40.5037 0.568359C15.4326 0.568359 17.8763 19.081 17.8763 19.081V30.9772C16.6231 32.1097 15.8202 33.7273 15.8202 35.5375V43.7669C15.8202 45.9345 16.9596 47.8421 18.6654 48.9445C20.7216 57.8956 26.1057 64.3381 26.1057 64.3381V71.8573C26.1034 74.5958 24.6042 77.1184 22.1976 78.432Z" fill="#E7ECED"/>
</svg>
